<svg xmlns="http://www.w3.org/2000/svg" width="15" height="15" fill="none"><path fill="#BCBCBE" fill-rule="evenodd" d="M2.09 6.5h1.875a10.946 10.946 0 0 1 1.254-4.006A5.508 5.508 0 0 0 2.091 6.5ZM7.5 2.599A8.946 8.946 0 0 0 5.98 6.5h3.04A8.946 8.946 0 0 0 7.5 2.599ZM9.02 8.5a8.946 8.946 0 0 1-1.52 3.901A8.946 8.946 0 0 1 5.98 8.5h3.04Zm-5.055 0H2.09a5.509 5.509 0 0 0 3.128 4.006A10.946 10.946 0 0 1 3.965 8.5Zm5.816 4.006A10.946 10.946 0 0 0 11.035 8.5h1.874a5.508 5.508 0 0 1-3.128 4.006ZM12.909 6.5h-1.874a10.946 10.946 0 0 0-1.254-4.006A5.508 5.508 0 0 1 12.909 6.5ZM0 7.5a7.5 7.5 0 1 1 15 0 7.5 7.5 0 0 1-15 0Z" clip-rule="evenodd"/></svg>