<svg xmlns="http://www.w3.org/2000/svg" width="15" height="17" fill="none"><path fill="#BCBCBE" fill-rule="evenodd" d="M7.5 2C4.473 2 2.018 4.432 2.018 7.429c0 2.327 1.174 4.23 2.544 5.587a10.196 10.196 0 0 0 1.98 1.537c.294.172.547.293.739.368.115.045.186.065.219.073a1.83 1.83 0 0 0 .22-.073 5.47 5.47 0 0 0 .738-.368 10.196 10.196 0 0 0 1.98-1.537c1.37-1.357 2.544-3.26 2.544-5.587C12.982 4.432 10.527 2 7.5 2ZM0 7.429C0 3.326 3.36 0 7.5 0 11.64 0 15 3.326 15 7.429c0 3.03-1.53 5.412-3.136 7.002a12.21 12.21 0 0 1-2.381 1.845 7.474 7.474 0 0 1-1.023.506c-.281.11-.629.218-.96.218-.331 0-.679-.108-.96-.218a7.474 7.474 0 0 1-1.023-.506 12.211 12.211 0 0 1-2.381-1.845C1.53 12.84 0 10.457 0 7.429Zm4.327 0c0-1.736 1.422-3.143 3.173-3.143 1.751 0 3.173 1.407 3.173 3.143 0 1.735-1.422 3.142-3.173 3.142-1.751 0-3.173-1.407-3.173-3.142ZM7.5 6.286a1.15 1.15 0 0 0-1.155 1.143c0 .63.517 1.142 1.155 1.142A1.15 1.15 0 0 0 8.655 7.43 1.15 1.15 0 0 0 7.5 6.286Z" clip-rule="evenodd"/></svg>