<svg xmlns="http://www.w3.org/2000/svg" width="135" height="27" fill="none"><path fill="#00315C" d="M41.604 23.459c3.59 0 6.11-1.842 6.11-5.125 0-2.928-1.901-4.132-5.277-5.005-2.877-.732-3.59-1.087-3.59-2.173 0-.85.736-1.488 2.14-1.488 1.402 0 2.852.614 4.326 1.63l1.903-2.74c-1.688-1.345-3.757-2.101-6.182-2.101-3.4 0-5.825 1.984-5.825 4.982 0 3.33 2.163 4.25 5.516 5.1 2.782.71 3.352 1.181 3.352 2.102 0 1.016-.903 1.606-2.401 1.606-1.902 0-3.471-.78-4.97-2.007l-2.163 2.574c1.997 1.77 4.541 2.645 7.061 2.645ZM50.512 27h3.614v-5.43c.856 1.015 2.045 1.889 3.97 1.889 3.02 0 5.802-2.315 5.802-6.541 0-4.274-2.83-6.588-5.801-6.588-1.879 0-3.091.873-3.971 2.054v-1.818h-3.614V27Zm6.657-6.588c-1.688 0-3.09-1.393-3.09-3.494 0-2.15 1.402-3.542 3.09-3.542s3.115 1.393 3.115 3.494c0 2.173-1.427 3.542-3.115 3.542ZM66.556 23.222h3.614v-4.675c0-3.023 1.474-4.463 3.876-4.463h.19V10.33c-2.14-.095-3.329 1.039-4.066 2.786v-2.55h-3.614v12.656ZM79.504 23.459c1.76 0 2.972-.638 3.852-1.606v1.37h3.495v-7.344c0-1.7-.428-3.094-1.38-4.038-.903-.897-2.33-1.417-4.303-1.417-2.163 0-3.542.402-4.945 1.015l.903 2.74c1.165-.425 2.14-.685 3.52-.685 1.806 0 2.733.826 2.733 2.314v.212a9.11 9.11 0 0 0-3.114-.52c-3.02 0-5.136 1.276-5.136 4.039 0 2.55 1.974 3.92 4.375 3.92Zm1.094-2.48c-1.165 0-1.974-.567-1.974-1.535 0-1.18.951-1.794 2.497-1.794.88 0 1.688.189 2.306.472v.637c0 1.3-1.141 2.22-2.83 2.22ZM93.372 23.317h3.28l5.018-12.751h-3.757l-2.877 8.477-2.853-8.477h-3.828l5.017 12.75ZM101.59 23.222h3.852v-3.778h-3.852v3.778ZM112.768 23.459c1.83 0 2.9-.969 3.733-2.031v1.794h3.613V10.566h-3.613v7.06c0 1.7-.88 2.574-2.259 2.574s-2.188-.874-2.188-2.574v-7.06h-3.614v8.193c0 2.905 1.593 4.7 4.328 4.7ZM122.921 23.222h11.08v-2.904h-6.61l6.61-7.226v-2.526h-10.866v2.904h6.372l-6.586 7.226v2.526Z"/><path fill="#0AA9B4" fill-rule="evenodd" d="M17.023 24.655c.877-.258 1.728-.62 2.52-1.042V8.637c0-.667-.56-1.205-1.254-1.205s-1.253.538-1.253 1.205v16.018h-.013Z" clip-rule="evenodd"/><path fill="#00315C" fill-rule="evenodd" d="M11.998 25.159c.389.035.79.046 1.192.046.45 0 .888-.023 1.327-.07v-13.01c0-.668-.56-1.206-1.254-1.206s-1.253.538-1.253 1.205v13.023l-.012.012Z" clip-rule="evenodd"/><path fill="#00315C" fill-rule="evenodd" d="M28.17 25.624a1.33 1.33 0 0 0 0-1.934l-4.129-3.915a11.933 11.933 0 0 0 2.262-6.997c0-6.88-5.884-12.471-13.152-12.471C5.897.307 0 5.886 0 12.777c0 5.65 3.955 10.421 9.394 11.945V15.65c0-.668-.569-1.208-1.273-1.208-.705 0-1.273.54-1.273 1.208v3.797c-1.929-1.64-3.14-4.02-3.14-6.67 0-4.945 4.227-8.954 9.456-8.954 5.216 0 9.456 4.009 9.456 8.955 0 .95-.161 1.864-.445 2.72v6.364l3.967 3.762c.557.528 1.471.528 2.04 0h-.012Z" clip-rule="evenodd"/><path fill="#0AA9B4" d="M57.11 3.771h.726a2.255 2.255 0 0 1-.299.92c-.161.27-.39.485-.684.644-.295.156-.663.234-1.104.234-.323 0-.616-.06-.88-.178a1.956 1.956 0 0 1-.678-.507 2.359 2.359 0 0 1-.438-.793c-.101-.31-.151-.655-.151-1.035v-.54c0-.38.05-.723.15-1.03.104-.31.252-.576.443-.797.194-.221.427-.391.7-.51.272-.12.578-.179.918-.179.416 0 .768.077 1.055.23.287.155.51.368.67.641.16.27.26.585.298.942h-.726a1.97 1.97 0 0 0-.197-.651 1.012 1.012 0 0 0-.408-.425c-.176-.1-.407-.149-.692-.149-.244 0-.46.046-.646.138a1.298 1.298 0 0 0-.465.39 1.806 1.806 0 0 0-.28.608 3.041 3.041 0 0 0-.094.785v.547c0 .266.027.515.083.749.058.233.145.438.26.614.116.176.264.315.443.417.179.1.39.149.635.149.31 0 .557-.049.741-.145a.957.957 0 0 0 .416-.417c.096-.182.164-.399.204-.652ZM61.45 1.467v.57h-2.068v-.57h2.068Zm-1.966 0v4.028h-.7V1.467h.7Zm2.586 0v4.028h-.703V1.467h.703ZM63.893 2.241v4.802h-.704V1.467h.643l.06.774Zm2.756 1.206v.078c0 .293-.036.565-.106.816a1.99 1.99 0 0 1-.31.648 1.404 1.404 0 0 1-.495.428 1.451 1.451 0 0 1-.677.152 1.75 1.75 0 0 1-.688-.126 1.356 1.356 0 0 1-.507-.369 1.876 1.876 0 0 1-.333-.58 3.318 3.318 0 0 1-.166-.764v-.417c.03-.298.087-.564.17-.8.083-.236.193-.437.33-.603.138-.169.305-.297.502-.384a1.63 1.63 0 0 1 .68-.134c.258 0 .486.05.685.15.199.096.367.235.503.416s.238.399.306.652c.07.25.106.53.106.837Zm-.704.078v-.078c0-.2-.02-.39-.064-.566a1.416 1.416 0 0 0-.2-.469.948.948 0 0 0-.836-.439.995.995 0 0 0-.79.331c-.09.1-.165.214-.223.343a1.947 1.947 0 0 0-.125.395v.964c.05.173.121.337.212.491.09.152.212.274.363.369.151.091.342.137.57.137a.976.976 0 0 0 .489-.115.98.98 0 0 0 .34-.324c.09-.136.157-.293.2-.469.043-.179.064-.369.064-.57ZM69.953 4.806V2.733a.83.83 0 0 0-.098-.414.639.639 0 0 0-.288-.275 1.055 1.055 0 0 0-.476-.097c-.176 0-.331.03-.465.09a.808.808 0 0 0-.31.234.509.509 0 0 0-.11.313h-.7a.9.9 0 0 1 .114-.429c.076-.141.184-.269.325-.383.144-.117.316-.208.515-.275.201-.07.426-.105.673-.105.297 0 .56.05.786.15.23.099.408.249.537.45.13.198.196.448.196.748v1.876c0 .134.012.277.034.428.026.152.062.282.11.391v.06h-.73a1.272 1.272 0 0 1-.083-.317 2.51 2.51 0 0 1-.03-.372Zm.121-1.753.008.484h-.707c-.2 0-.377.016-.534.048-.156.03-.287.076-.393.138a.615.615 0 0 0-.325.558.7.7 0 0 0 .087.346.628.628 0 0 0 .261.25.96.96 0 0 0 .435.09 1.176 1.176 0 0 0 .957-.462.7.7 0 0 0 .158-.376l.299.33a.99.99 0 0 1-.144.347 1.666 1.666 0 0 1-.775.652 1.523 1.523 0 0 1-.597.111c-.278 0-.52-.053-.73-.16a1.24 1.24 0 0 1-.484-.428 1.12 1.12 0 0 1-.17-.607c0-.216.043-.406.129-.57.085-.166.209-.303.37-.413.161-.111.355-.196.582-.253.227-.057.48-.085.76-.085h.813ZM73.673 3.723h-1.342l-.008-.551h1.097c.217 0 .397-.021.54-.063a.667.667 0 0 0 .33-.19.46.46 0 0 0 .11-.313.485.485 0 0 0-.25-.436.924.924 0 0 0-.31-.108 2.15 2.15 0 0 0-.428-.037h-.896v3.47h-.7V1.467h1.596c.26 0 .493.022.7.067.209.044.387.113.533.205.149.089.262.203.34.342a.987.987 0 0 1 .117.491.816.816 0 0 1-.298.637c-.099.084-.22.154-.363.208a1.896 1.896 0 0 1-.496.101l-.272.205Zm0 1.772h-1.595l.348-.559h1.247c.194 0 .356-.023.484-.07a.606.606 0 0 0 .288-.209.55.55 0 0 0 .098-.327.533.533 0 0 0-.099-.324.575.575 0 0 0-.287-.209 1.354 1.354 0 0 0-.484-.074h-1.062l.007-.551h1.327l.254.208c.224.018.414.072.57.164a.954.954 0 0 1 .356.35.89.89 0 0 1 .121.454c0 .189-.037.355-.11.499a.953.953 0 0 1-.31.361 1.526 1.526 0 0 1-.495.216c-.194.047-.413.07-.658.07ZM75.998 3.525V3.44c0-.29.043-.56.129-.808.086-.25.21-.468.37-.651a1.65 1.65 0 0 1 .586-.432c.23-.105.487-.157.772-.157.287 0 .545.052.775.157.232.101.428.245.59.432.163.183.288.4.374.651.086.248.128.517.128.808v.085c0 .29-.042.56-.128.808s-.21.466-.374.652a1.713 1.713 0 0 1-.587.432 1.866 1.866 0 0 1-.77.152c-.288 0-.546-.05-.776-.152a1.751 1.751 0 0 1-.59-.432 1.96 1.96 0 0 1-.37-.652 2.46 2.46 0 0 1-.129-.808Zm.7-.085v.085c0 .201.024.391.072.57.047.176.12.333.215.47.098.136.22.244.367.323.146.077.316.115.51.115.192 0 .36-.038.503-.115a1.05 1.05 0 0 0 .363-.324c.096-.136.168-.293.216-.469a2.09 2.09 0 0 0 .075-.57V3.44c0-.199-.025-.386-.076-.562a1.437 1.437 0 0 0-.219-.473 1.037 1.037 0 0 0-.363-.328 1.031 1.031 0 0 0-.506-.119c-.192 0-.36.04-.507.12-.144.079-.265.188-.363.327a1.484 1.484 0 0 0-.215.473 2.135 2.135 0 0 0-.072.562ZM83.684 1.467v4.028h-.699V1.467h.7Zm-.238 1.85v.566a6.24 6.24 0 0 1-.43.141c-.144.04-.297.072-.458.097a3.727 3.727 0 0 1-.518.034 1.99 1.99 0 0 1-.84-.164 1.215 1.215 0 0 1-.548-.503c-.128-.226-.192-.51-.192-.852V1.459h.699v1.177c0 .223.034.404.102.543a.664.664 0 0 0 .299.31c.13.064.29.096.48.096.181 0 .351-.011.51-.033a4.19 4.19 0 0 0 .462-.097c.148-.04.293-.086.434-.138ZM87.586 3.213v.558h-2.162v-.558h2.162Zm-2.015-1.746v4.028h-.7V1.467h.7Zm2.582 0v4.028h-.703V1.467h.703ZM90.036 4.404l1.887-2.937h.703v4.028h-.703V2.558l-1.887 2.937h-.696V1.467h.696v2.937ZM94.509 1.467v4.028h-.7V1.467h.7Zm2.684 0-1.94 2.308h-.979l-.106-.603h.802l1.372-1.705h.85Zm-.752 4.028L94.936 3.67l.45-.5 1.943 2.324h-.888ZM101.847.074v5.42h-.718V.075h.718Zm1.769 0v.589h-4.253V.074h4.253ZM106.308 4.806V2.733a.836.836 0 0 0-.098-.414.638.638 0 0 0-.288-.275 1.052 1.052 0 0 0-.476-.097c-.176 0-.331.03-.465.09a.812.812 0 0 0-.31.234.51.51 0 0 0-.11.313h-.699c0-.144.038-.287.113-.429.076-.141.184-.269.326-.383.143-.117.315-.208.514-.275.201-.07.426-.105.673-.105.297 0 .559.05.786.15.229.099.408.249.537.45.131.198.196.448.196.748v1.876c0 .134.012.277.035.428.025.152.061.282.109.391v.06h-.73a1.277 1.277 0 0 1-.083-.317 2.534 2.534 0 0 1-.03-.372Zm.121-1.753.008.484h-.707c-.199 0-.377.016-.533.048-.157.03-.288.076-.394.138a.619.619 0 0 0-.325.558.7.7 0 0 0 .087.346.628.628 0 0 0 .261.25c.118.06.263.09.435.09.214 0 .403-.045.567-.135.164-.09.294-.198.389-.327a.69.69 0 0 0 .159-.376l.299.33c-.018.105-.066.22-.144.347a1.687 1.687 0 0 1-.775.651 1.52 1.52 0 0 1-.597.112c-.278 0-.521-.053-.73-.16a1.24 1.24 0 0 1-.484-.428 1.124 1.124 0 0 1-.17-.607c0-.216.043-.406.129-.57a1.1 1.1 0 0 1 .37-.413c.161-.111.355-.196.582-.253.227-.057.48-.085.76-.085h.813ZM108.168 1.467h.7v3.462h1.497V1.467h.703v3.462h1.493V1.467h.7v4.028h-5.093V1.467ZM115.136 1.467v4.028h-.699V1.467h.699Zm2.684 0-1.939 2.308h-.979l-.106-.603h.801l1.373-1.705h.85Zm-.752 4.028-1.505-1.824.45-.5 1.943 2.324h-.888ZM120.202 5.57a2.04 2.04 0 0 1-.775-.142 1.77 1.77 0 0 1-.594-.406 1.825 1.825 0 0 1-.378-.618 2.24 2.24 0 0 1-.132-.782v-.156c0-.328.049-.62.148-.875.098-.258.231-.476.4-.655.169-.179.361-.314.575-.406.214-.092.436-.138.665-.138.293 0 .545.05.756.15.215.099.39.237.526.416.136.176.237.385.302.626.066.238.099.498.099.781v.31h-3.055v-.563h2.355V3.06a1.708 1.708 0 0 0-.113-.521.936.936 0 0 0-.303-.417c-.138-.11-.327-.164-.567-.164a.962.962 0 0 0-.782.391c-.096.13-.17.287-.223.473-.053.186-.08.4-.08.644v.156c0 .191.027.371.08.54.055.166.135.313.238.44.106.126.233.225.382.297.151.072.322.108.514.108.247 0 .456-.05.627-.149.172-.1.322-.232.45-.398l.424.331a1.936 1.936 0 0 1-.337.376c-.136.12-.303.216-.502.29-.197.075-.43.112-.7.112ZM125.385 3.213v.558h-2.162v-.558h2.162Zm-2.015-1.746v4.028h-.699V1.467h.699Zm2.582 0v4.028h-.703V1.467h.703ZM128.746 1.467v4.028h-.703V1.467h.703Zm1.373 0v.558h-3.422v-.558h3.422ZM133.158 4.806V2.733a.825.825 0 0 0-.098-.414.64.64 0 0 0-.287-.275 1.056 1.056 0 0 0-.477-.097c-.176 0-.331.03-.465.09a.812.812 0 0 0-.31.234.509.509 0 0 0-.109.313h-.7c0-.144.038-.287.114-.429a1.25 1.25 0 0 1 .325-.383c.144-.117.315-.208.514-.275.202-.07.426-.105.673-.105.297 0 .56.05.786.15.23.099.409.249.537.45.131.198.197.448.197.748v1.876c0 .134.011.277.034.428.025.152.062.282.11.391v.06h-.73a1.277 1.277 0 0 1-.083-.317 2.543 2.543 0 0 1-.031-.372Zm.121-1.753.008.484h-.707c-.199 0-.377.016-.533.048-.156.03-.287.076-.393.138a.656.656 0 0 0-.242.234.61.61 0 0 0-.083.324.7.7 0 0 0 .087.346.632.632 0 0 0 .26.25c.119.06.264.09.435.09a1.178 1.178 0 0 0 .957-.462.706.706 0 0 0 .159-.376l.298.33a.979.979 0 0 1-.143.347 1.689 1.689 0 0 1-.776.652 1.52 1.52 0 0 1-.597.111 1.59 1.59 0 0 1-.73-.16 1.236 1.236 0 0 1-.483-.428 1.116 1.116 0 0 1-.171-.607c0-.216.043-.406.129-.57a1.11 1.11 0 0 1 .37-.413c.162-.111.356-.196.583-.253.227-.057.48-.085.76-.085h.812Z"/></svg>