<svg xmlns="http://www.w3.org/2000/svg" width="225" height="46" fill="none"><path fill="#00315C" d="M69.857 39.965c6.028 0 10.26-3.137 10.26-8.73 0-4.988-3.194-7.04-8.863-8.528-4.83-1.247-6.028-1.85-6.028-3.701 0-1.448 1.237-2.535 3.593-2.535 2.355 0 4.79 1.046 7.266 2.776l3.194-4.666C76.444 12.287 72.97 11 68.899 11c-5.71 0-9.781 3.38-9.781 8.488 0 5.673 3.633 7.242 9.262 8.69 4.67 1.207 5.629 2.012 5.629 3.58 0 1.73-1.517 2.736-4.032 2.736-3.194 0-5.829-1.327-8.344-3.42L58 35.46c3.353 3.017 7.625 4.505 11.857 4.505ZM84.814 46h6.068v-9.253c1.437 1.73 3.433 3.218 6.667 3.218 5.07 0 9.741-3.942 9.741-11.143 0-7.282-4.751-11.224-9.741-11.224-3.154 0-5.19 1.488-6.667 3.5V18h-6.068v28Zm11.178-11.224c-2.835 0-5.19-2.374-5.19-5.954 0-3.661 2.355-6.035 5.19-6.035 2.834 0 5.23 2.374 5.23 5.954 0 3.702-2.395 6.035-5.23 6.035ZM111.754 39.563h6.068v-7.965c0-5.15 2.475-7.604 6.507-7.604h.319v-6.396c-3.593-.161-5.589 1.77-6.826 4.747V18h-6.068v21.563ZM133.494 39.965c2.955 0 4.991-1.086 6.468-2.735v2.333h5.868V27.052c0-2.897-.718-5.27-2.315-6.88-1.517-1.528-3.913-2.413-7.226-2.413-3.633 0-5.949.683-8.304 1.73l1.517 4.666c1.956-.724 3.593-1.167 5.909-1.167 3.034 0 4.591 1.409 4.591 3.943v.362c-1.517-.523-3.074-.885-5.23-.885-5.07 0-8.623 2.172-8.623 6.88 0 4.344 3.313 6.678 7.345 6.678Zm1.837-4.224c-1.956 0-3.314-.965-3.314-2.615 0-2.011 1.597-3.057 4.192-3.057 1.477 0 2.835.322 3.873.805v1.086c0 2.212-1.917 3.781-4.751 3.781ZM156.78 39.724h5.509L170.713 18h-6.308l-4.831 14.443L154.784 18h-6.428l8.424 21.724ZM170.579 39.563h6.467v-6.437h-6.467v6.437ZM189.348 39.965c3.074 0 4.87-1.649 6.267-3.46v3.058h6.069V18h-6.069v12.029c0 2.896-1.477 4.385-3.792 4.385-2.316 0-3.673-1.489-3.673-4.385V18h-6.068v13.96c0 4.948 2.674 8.005 7.266 8.005ZM206.396 39.563H225v-4.948h-11.098L225 22.305V18h-18.244v4.948h10.699l-11.059 12.31v4.305Z"/><path fill="#0AA9B4" fill-rule="evenodd" d="M28.586 43.615a22.16 22.16 0 0 0 4.23-1.823v-26.21a2.104 2.104 0 1 0-4.21 0v28.033h-.02Z" clip-rule="evenodd"/><path fill="#00315C" fill-rule="evenodd" d="M20.145 44.493c.654.061 1.328.082 2.003.082.756 0 1.491-.041 2.227-.123v-22.77a2.104 2.104 0 1 0-4.21 0v22.79l-.02.02Z" clip-rule="evenodd"/><path fill="#00315C" fill-rule="evenodd" d="M47.3 45.308c.934-.923.934-2.441 0-3.385l-6.932-6.851a21.484 21.484 0 0 0 3.798-12.246C44.166 10.785 34.286 1 22.083 1 9.9 1 0 10.764 0 22.826c0 9.887 6.641 18.236 15.773 20.902V27.851c0-1.169-.954-2.113-2.137-2.113a2.122 2.122 0 0 0-2.138 2.113v6.646c-3.238-2.871-5.272-7.035-5.272-11.671 0-8.657 7.098-15.672 15.878-15.672 8.758 0 15.877 7.015 15.877 15.672 0 1.661-.27 3.261-.747 4.759v11.138l6.662 6.585c.934.923 2.47.923 3.424 0h-.02Z" clip-rule="evenodd"/><path fill="#0AA9B4" d="M95.891 6.425h1.219a3.88 3.88 0 0 1-.502 1.567 2.93 2.93 0 0 1-1.149 1.097c-.495.266-1.113.4-1.853.4a3.519 3.519 0 0 1-1.48-.305 3.287 3.287 0 0 1-1.136-.863 4.036 4.036 0 0 1-.736-1.35A5.76 5.76 0 0 1 90 5.206v-.92a5.7 5.7 0 0 1 .254-1.756c.173-.529.421-.981.743-1.358A3.312 3.312 0 0 1 92.17.304 3.761 3.761 0 0 1 93.714 0c.698 0 1.288.131 1.77.393.483.262.858.626 1.124 1.091.271.461.438.996.502 1.605H95.89a3.394 3.394 0 0 0-.33-1.11 1.715 1.715 0 0 0-.686-.723c-.296-.17-.683-.254-1.161-.254-.41 0-.773.078-1.086.235-.309.156-.57.378-.78.666a3.097 3.097 0 0 0-.47 1.034 5.248 5.248 0 0 0-.16 1.338v.932c0 .453.047.878.14 1.275.098.397.244.746.438 1.047.195.3.443.537.743.71.3.169.656.254 1.067.254.52 0 .935-.083 1.244-.248.309-.165.542-.401.698-.71.161-.309.275-.679.343-1.11ZM103.179 2.499v.97h-3.473V2.5h3.473Zm-3.301 0v6.863h-1.175V2.499h1.175Zm4.342 0v6.863h-1.181V2.499h1.181ZM107.28 3.818V12h-1.181V2.499h1.079l.102 1.32Zm4.628 2.055v.133a5.2 5.2 0 0 1-.178 1.39c-.119.422-.292.79-.521 1.103a2.364 2.364 0 0 1-.831.73c-.331.173-.709.26-1.137.26a2.9 2.9 0 0 1-1.155-.216 2.285 2.285 0 0 1-.851-.628 3.187 3.187 0 0 1-.558-.99 5.702 5.702 0 0 1-.28-1.3v-.71c.051-.508.146-.962.286-1.364.14-.402.324-.744.552-1.027.233-.288.514-.506.845-.654a2.7 2.7 0 0 1 1.142-.228c.432 0 .815.085 1.149.254.335.165.616.401.845.71.228.309.399.679.514 1.11.118.427.178.903.178 1.427Zm-1.181.133v-.133c0-.342-.036-.664-.108-.964a2.423 2.423 0 0 0-.337-.8 1.598 1.598 0 0 0-.571-.545 1.628 1.628 0 0 0-.832-.202c-.296 0-.554.05-.774.152-.216.101-.4.239-.552.412-.153.17-.278.364-.375.584a3.32 3.32 0 0 0-.209.672v1.643c.084.296.203.575.355.837.152.258.356.467.61.628.253.156.573.234.958.234.318 0 .591-.065.819-.196.233-.136.423-.32.571-.552.153-.233.265-.499.337-.8.072-.304.108-.627.108-.97ZM117.456 8.188V4.655c0-.27-.055-.505-.165-.704a1.081 1.081 0 0 0-.483-.469c-.216-.11-.482-.165-.8-.165-.296 0-.556.05-.78.152-.22.102-.394.235-.521.4a.873.873 0 0 0-.184.533h-1.174c0-.246.063-.489.19-.73.127-.24.309-.458.546-.653a2.73 2.73 0 0 1 .863-.47 3.411 3.411 0 0 1 1.13-.177c.5 0 .94.085 1.321.254.385.169.685.425.901.767.22.339.33.763.33 1.275v3.197c0 .228.019.471.057.73.043.257.104.479.184.665v.102h-1.225a2.166 2.166 0 0 1-.139-.54 4.326 4.326 0 0 1-.051-.634Zm.203-2.987.013.824h-1.187c-.335 0-.633.028-.896.083-.262.05-.482.129-.66.234a1.113 1.113 0 0 0-.406.4 1.06 1.06 0 0 0-.14.552c0 .216.049.412.146.59.098.177.244.319.438.425.199.101.443.152.73.152a1.97 1.97 0 0 0 1.606-.786c.165-.22.254-.434.267-.641l.502.564c-.03.178-.11.375-.242.59a2.836 2.836 0 0 1-1.301 1.11c-.296.127-.631.19-1.003.19-.466 0-.874-.09-1.225-.272a2.098 2.098 0 0 1-.813-.73 1.933 1.933 0 0 1-.285-1.034c0-.367.071-.69.215-.97.144-.283.352-.518.622-.704a2.96 2.96 0 0 1 .978-.431 5.161 5.161 0 0 1 1.276-.146h1.365ZM123.702 6.342h-2.253l-.013-.938h1.841c.364 0 .667-.036.908-.108.245-.072.429-.18.552-.323a.79.79 0 0 0 .184-.533.836.836 0 0 0-.419-.742 1.53 1.53 0 0 0-.52-.184 3.566 3.566 0 0 0-.718-.064h-1.504v5.912h-1.175V2.499h2.679c.436 0 .828.038 1.175.114.351.076.649.192.895.349.25.152.44.347.571.583.131.237.197.516.197.838a1.403 1.403 0 0 1-.502 1.084 2.03 2.03 0 0 1-.609.355 3.136 3.136 0 0 1-.832.172l-.457.348Zm0 3.02h-2.679l.584-.952h2.095c.326 0 .597-.04.813-.12.216-.085.377-.203.482-.356a.945.945 0 0 0 .165-.558c0-.215-.055-.4-.165-.551a.961.961 0 0 0-.482-.356c-.216-.084-.487-.127-.813-.127h-1.783l.012-.938h2.228l.426.355c.376.03.696.123.958.279.263.156.462.355.597.596.136.237.203.495.203.774 0 .321-.061.605-.184.85-.118.245-.292.45-.52.615a2.55 2.55 0 0 1-.832.368c-.326.08-.694.12-1.105.12ZM127.607 6.006V5.86c0-.494.071-.953.215-1.376.144-.427.352-.797.622-1.11.271-.317.599-.562.984-.736a3.06 3.06 0 0 1 1.295-.266c.483 0 .917.089 1.302.266.389.174.719.42.99.736.275.313.485.683.629 1.11.144.423.215.882.215 1.376v.146c0 .495-.071.954-.215 1.377a3.297 3.297 0 0 1-.629 1.11 2.882 2.882 0 0 1-.984.735c-.381.174-.812.26-1.295.26-.482 0-.916-.086-1.301-.26a2.957 2.957 0 0 1-.991-.735 3.368 3.368 0 0 1-.622-1.11 4.243 4.243 0 0 1-.215-1.377Zm1.174-.146v.146c0 .343.04.666.121.97.08.301.201.567.361.8.165.232.371.416.616.552.246.13.531.196.857.196.322 0 .603-.065.844-.196a1.77 1.77 0 0 0 .61-.552c.161-.233.281-.499.362-.8.084-.304.127-.627.127-.97V5.86a3.54 3.54 0 0 0-.127-.957 2.478 2.478 0 0 0-.368-.806 1.748 1.748 0 0 0-.61-.558 1.711 1.711 0 0 0-.851-.203c-.321 0-.605.068-.85.203a1.83 1.83 0 0 0-.61.558c-.16.233-.281.501-.361.806-.081.3-.121.62-.121.957ZM140.512 2.499v6.863h-1.174V2.499h1.174Zm-.4 3.152v.964c-.237.089-.478.17-.723.241a6.706 6.706 0 0 1-.768.165 6.18 6.18 0 0 1-.87.057c-.542 0-1.012-.093-1.409-.279a2.051 2.051 0 0 1-.921-.856c-.216-.385-.324-.869-.324-1.453V2.486h1.175V4.49c0 .381.057.69.171.926.114.237.282.413.502.527.22.11.488.165.806.165.305 0 .59-.02.857-.057.271-.043.529-.098.774-.165.25-.068.493-.146.73-.235ZM147.064 5.474v.95h-3.632v-.95h3.632Zm-3.384-2.975v6.863h-1.174V2.499h1.174Zm4.336 0v6.863h-1.181V2.499h1.181ZM151.177 7.503l3.168-5.004h1.181v6.863h-1.181V4.357l-3.168 5.005h-1.168V2.499h1.168v5.004ZM158.687 2.499v6.863h-1.174V2.499h1.174Zm4.507 0-3.256 3.932h-1.644l-.178-1.027h1.346l2.304-2.905h1.428Zm-1.263 6.863-2.527-3.108.756-.85 3.263 3.958h-1.492ZM171.009.127v9.235h-1.206V.127h1.206Zm2.971 0v1.002h-7.142V.127h7.142ZM178.5 8.188V4.655c0-.27-.055-.505-.165-.704a1.081 1.081 0 0 0-.483-.469c-.216-.11-.482-.165-.8-.165-.296 0-.556.05-.78.152a1.354 1.354 0 0 0-.521.4.873.873 0 0 0-.184.533h-1.175c0-.246.064-.489.191-.73.127-.24.309-.458.546-.653a2.73 2.73 0 0 1 .863-.47 3.407 3.407 0 0 1 1.13-.177c.5 0 .94.085 1.321.254.385.169.685.425.901.767.22.339.33.763.33 1.275v3.197c0 .228.019.471.057.73.043.257.104.479.184.665v.102h-1.225a2.166 2.166 0 0 1-.139-.54 4.326 4.326 0 0 1-.051-.634Zm.203-2.987.013.824h-1.188c-.334 0-.632.028-.895.083-.262.05-.482.129-.66.234a1.113 1.113 0 0 0-.406.4 1.06 1.06 0 0 0-.14.552c0 .216.049.412.146.59.098.177.244.319.438.425.199.101.442.152.73.152a1.97 1.97 0 0 0 1.606-.786c.165-.22.254-.434.267-.641l.501.564c-.029.178-.11.375-.241.59a2.836 2.836 0 0 1-1.301 1.11c-.296.127-.631.19-1.003.19-.466 0-.874-.09-1.225-.272a2.098 2.098 0 0 1-.813-.73 1.934 1.934 0 0 1-.286-1.034c0-.367.072-.69.216-.97.144-.283.352-.518.622-.704a2.96 2.96 0 0 1 .978-.431 5.161 5.161 0 0 1 1.276-.146h1.365ZM181.623 2.499h1.174v5.898h2.514V2.5h1.181v5.898H189V2.5h1.174v6.863h-8.551V2.499ZM193.323 2.499v6.863h-1.175V2.499h1.175Zm4.507 0-3.257 3.932h-1.644l-.178-1.027h1.346l2.305-2.905h1.428Zm-1.263 6.863-2.527-3.108.755-.85 3.263 3.958h-1.491ZM201.829 9.488a3.38 3.38 0 0 1-1.301-.24 2.96 2.96 0 0 1-.997-.692 3.074 3.074 0 0 1-.635-1.053 3.861 3.861 0 0 1-.222-1.332v-.266c0-.558.083-1.055.248-1.49.165-.44.389-.812.673-1.117.283-.304.605-.535.965-.691a2.77 2.77 0 0 1 1.117-.235c.491 0 .914.085 1.269.254.36.169.654.406.883.71.228.3.398.656.508 1.066.11.406.165.85.165 1.332v.526h-5.13v-.958h3.955v-.088c-.017-.305-.08-.6-.19-.888a1.596 1.596 0 0 0-.508-.71c-.233-.187-.55-.28-.952-.28a1.603 1.603 0 0 0-1.314.666 2.49 2.49 0 0 0-.375.806 4.075 4.075 0 0 0-.133 1.097v.266c0 .326.044.632.133.92.093.283.227.533.4.748.178.216.392.385.641.508.254.122.542.184.864.184.414 0 .766-.085 1.053-.254.288-.17.54-.395.756-.679l.711.565a3.298 3.298 0 0 1-.565.64c-.229.203-.51.368-.844.495-.33.127-.722.19-1.175.19ZM210.533 5.474v.95h-3.632v-.95h3.632Zm-3.384-2.975v6.863h-1.174V2.499h1.174Zm4.336 0v6.863h-1.181V2.499h1.181ZM216.176 2.499v6.863h-1.181V2.499h1.181Zm2.304 0v.951h-5.745V2.5h5.745ZM223.584 8.188V4.655c0-.27-.055-.505-.165-.704a1.074 1.074 0 0 0-.482-.469c-.216-.11-.483-.165-.8-.165-.296 0-.557.05-.781.152-.22.102-.393.235-.52.4a.873.873 0 0 0-.184.533h-1.175c0-.246.064-.489.191-.73.127-.24.309-.458.545-.653.242-.199.53-.355.864-.47a3.403 3.403 0 0 1 1.13-.177c.499 0 .939.085 1.32.254.385.169.686.425.902.767.22.339.33.763.33 1.275v3.197c0 .228.019.471.057.73.042.257.104.479.184.665v.102h-1.225a2.206 2.206 0 0 1-.14-.54 4.326 4.326 0 0 1-.051-.634Zm.204-2.987.012.824h-1.187c-.334 0-.633.028-.895.083-.262.05-.482.129-.66.234a1.05 1.05 0 0 0-.546.951c0 .217.049.413.146.59.097.178.243.32.438.426.199.101.442.152.73.152.36 0 .677-.076.952-.228.275-.153.493-.339.654-.559.165-.22.254-.433.267-.64l.501.564c-.029.178-.11.375-.241.59a2.851 2.851 0 0 1-1.301 1.11 2.53 2.53 0 0 1-1.003.19c-.466 0-.874-.09-1.226-.272a2.088 2.088 0 0 1-.812-.73 1.925 1.925 0 0 1-.286-1.034c0-.367.072-.69.216-.97.144-.283.351-.518.622-.704a2.96 2.96 0 0 1 .978-.431 5.161 5.161 0 0 1 1.276-.146h1.365Z"/></svg>