<svg xmlns="http://www.w3.org/2000/svg" width="15" height="15" fill="none"><path fill="#BCBCBE" fill-rule="evenodd" d="M3.571 0h1.744c1.278 0 2.393.87 2.703 2.11l.46 1.842A2.786 2.786 0 0 1 6.81 7.214c.24.408.581.747.99.985a2.786 2.786 0 0 1 3.763-1.297l1.898.95a2.786 2.786 0 0 1 1.54 2.49v1.087A3.571 3.571 0 0 1 11.429 15H9.857C4.413 15 0 10.587 0 5.143V3.57A3.571 3.571 0 0 1 3.571 0Zm0 2h1.744c.36 0 .675.245.762.595l.46 1.842a.786.786 0 0 1-.513.936l-.871.29a.95.95 0 0 0-.631 1.088 4.751 4.751 0 0 0 3.727 3.727.95.95 0 0 0 1.088-.631l.234-.702a.786.786 0 0 1 1.096-.454l1.899.949a.786.786 0 0 1 .434.703v1.086c0 .867-.704 1.571-1.571 1.571H9.857A7.857 7.857 0 0 1 2 5.143V3.57C2 2.704 2.704 2 3.571 2Z" clip-rule="evenodd"/></svg>